<?xml version="1.0" encoding="iso-8859-1"?>
<!-- Uploaded to: SVG Repo, www.svgrepo.com, Generator: SVG Repo Mixer Tools -->
<svg height="800px" width="800px" version="1.1" id="Capa_1" xmlns="http://www.w3.org/2000/svg" xmlns:xlink="http://www.w3.org/1999/xlink" 
	 viewBox="0 0 211.471 211.471" xml:space="preserve">
<g>
	<g>
		<path style="fill:#010002;" d="M116.613,62.485L0.354,178.758L0,179.105l23.57,23.57l0.34,0.347L140.176,86.75l0.347-0.347
			l-23.57-23.57L116.613,62.485z M116.613,68.537l17.869,17.866L23.914,196.971L6.055,179.105L116.613,68.537z"/>
		<path style="fill:#010002;" d="M156.381,70.842c2.53-2.147,4.706-3.998,4.831-6.746c0.072-1.696-0.716-3.335-2.405-5.028
			l-14.852-14.849c-1.618-1.621-3.192-2.409-4.828-2.409c-2.856,0-4.849,2.348-6.957,4.831l-0.229,0.265
			c-0.752,0.873-1.528,1.779-2.423,2.67c-0.902,0.909-1.829,1.704-2.731,2.473l-0.2,0.161c-2.527,2.162-4.717,4.019-4.828,6.757
			c-0.068,1.714,0.719,3.357,2.409,5.039l14.849,14.856c1.614,1.618,3.189,2.401,4.828,2.409c2.842,0,4.746-2.244,7.007-4.903
			c0.802-0.945,1.632-1.922,2.58-2.874C154.402,72.531,155.379,71.7,156.381,70.842z M143.845,76.994
			c-0.412,0-1.077-0.419-1.814-1.156l-14.849-14.849c-1.016-1.031-1.152-1.593-1.152-1.843c0.043-0.873,1.8-2.366,3.346-3.69
			c0.977-0.83,2.09-1.775,3.171-2.852c1.077-1.074,2.033-2.197,2.895-3.21c1.324-1.55,2.82-3.307,3.69-3.307
			c0.412,0,1.066,0.422,1.804,1.156l14.849,14.856c1.031,1.031,1.167,1.582,1.156,1.832c-0.036,0.852-1.746,2.316-3.321,3.654
			c-1.092,0.927-2.162,1.843-3.196,2.885c-1.092,1.092-2.044,2.201-2.881,3.189C146.218,75.219,144.722,76.994,143.845,76.994z"/>
		<polygon style="fill:#010002;" points="171.33,78.343 164.251,87.77 152.477,88.288 161.914,95.389 162.433,107.099 
			169.48,97.726 181.276,97.207 171.86,90.124 		"/>
		<path style="fill:#010002;" d="M195.219,32.959l-0.902-20.292l-12.215,16.237l-20.296,0.895l16.277,12.24l0.88,20.188
			l12.154-16.151l20.353-0.895L195.219,32.959z M189.278,42.569l-7.165,9.53l-0.533-11.91l-9.638-7.251l11.785-0.523l0.225-0.011
			l7.233-9.613l0.54,12.014l9.606,7.229l-11.825,0.523L189.278,42.569z"/>
		<polygon style="fill:#010002;" points="136.791,38.822 144.235,28.922 156.693,28.382 146.751,20.888 146.189,8.448 
			138.716,18.408 126.273,18.948 136.247,26.45 		"/>
	</g>
</g>
</svg>