<!DOCTYPE svg PUBLIC "-//W3C//DTD SVG 1.1//EN" "http://www.w3.org/Graphics/SVG/1.1/DTD/svg11.dtd">
<!-- Uploaded to: SVG Repo, www.svgrepo.com, Transformed by: SVG Repo Mixer Tools -->
<svg version="1.1" id="Layer_1" xmlns:sketch="http://www.bohemiancoding.com/sketch/ns" xmlns="http://www.w3.org/2000/svg" xmlns:xlink="http://www.w3.org/1999/xlink" width="800px" height="800px" viewBox="0 0 64 51" enable-background="new 0 0 64 51" xml:space="preserve" fill="#000000">
<g id="SVGRepo_bgCarrier" stroke-width="0"/>
<g id="SVGRepo_tracerCarrier" stroke-linecap="round" stroke-linejoin="round"/>
<g id="SVGRepo_iconCarrier"> <title>Briefcase</title> <desc>Created with Sketch.</desc> <g id="Page-1" sketch:type="MSPage"> <g id="Briefcase" transform="translate(1.000000, 1.000000)" sketch:type="MSLayerGroup"> <path id="Shape_1_" sketch:type="MSShapeGroup" fill="none" stroke="#000000" stroke-width="2" d="M62,22.4v24.5 c0,1.2-1,2.1-2.1,2.1H2.2c-1.2,0-2.1-1-2.1-2.1V22.4"/> <path id="Shape_2_" sketch:type="MSShapeGroup" fill="none" stroke="#000000" stroke-width="2" d="M21,7V2.3C21,1.1,21.8,0,22.8,0 h14.4c1,0,1.8,1,1.8,2.3V7"/> <path id="Shape_3_" sketch:type="MSShapeGroup" fill="none" stroke="#000000" stroke-width="2" d="M35,24v6c0,1.1-1,2-2.2,2h-5.6 C26,32,25,31.1,25,30v-6"/> <path id="Shape_4_" sketch:type="MSShapeGroup" fill="none" stroke="#000000" stroke-width="2" d="M25,27h10"/> <path id="Shape" sketch:type="MSShapeGroup" fill="none" stroke="#000000" stroke-width="2" d="M62,20.9c0,1.2-1,2.1-2.1,2.1H2.2 c-1.2,0-2.1-1-2.1-2.1V8.1c0-1.2,1-2.1,2.1-2.1h57.7C61.1,6,62,7,62,8.1V20.9L62,20.9z"/> </g> </g> </g>
</svg>